<svg xmlns="http://www.w3.org/2000/svg" viewBox="0 0 603.89 140.47"><defs><style>.cls-1{fill:#0bbbef;}</style></defs><title>logo_1</title><g id="Calque_2" data-name="Calque 2"><g id="Calque_1-2" data-name="Calque 1"><path class="cls-1" d="M13.16,126.31q-3.23-3.7-3.22-12.09V0H0V114.43q0,11.5,5.65,17.93t17,6.43h8.58V130H24.36q-8,0-11.21-3.7"/><rect class="cls-1" x="45.61" y="0.01" width="12.28" height="12.28"/><rect class="cls-1" x="46.78" y="44.83" width="9.94" height="93.96"/><path class="cls-1" d="M122.6,43.67a39.09,39.09,0,0,0-15.4,2.82q-6.63,2.83-12.48,10.43V0H84.79V138.79h9.94V126.71q5.85,7.6,12.48,10.43A39.08,39.08,0,0,0,122.6,140q14.81,0,23-8.18,12.09-12.09,12.09-40t-12.09-40q-8.17-8.18-23-8.19m25.14,48.15a95.93,95.93,0,0,1-1,14.62,50.23,50.23,0,0,1-3.6,12.28A19.3,19.3,0,0,1,135,128q-5.55,3.22-13.74,3.22T107.5,128a19.3,19.3,0,0,1-8.19-9.26,49.91,49.91,0,0,1-3.6-12.28,95.47,95.47,0,0,1-1-14.62,95.47,95.47,0,0,1,1-14.62,50,50,0,0,1,3.6-12.28,19.32,19.32,0,0,1,8.19-9.26q5.56-3.21,13.75-3.21T135,55.65a19.31,19.31,0,0,1,8.19,9.26,50.36,50.36,0,0,1,3.6,12.28,95.93,95.93,0,0,1,1,14.62"/><path class="cls-1" d="M218.12,43.67q-17.16,0-27.69,12.28V0H180.5V138.79h9.94V80.51q0-13.45,6.92-20.76t19.59-7.31q12.67,0,19.31,7.21t6.62,20.86v58.28h9.94v-60q0-16.38-9.25-25.73t-25.44-9.36"/><path class="cls-1" d="M312.07,43.66q-17.74,0-27.67,12.68t-9.94,35.48q0,23.59,10.23,35.87T314.41,140q11.11,0,18.71-3.41a52,52,0,0,0,15.21-11l-7.4-5.85A41.26,41.26,0,0,1,329,128.36,34.1,34.1,0,0,1,315,131q-15,0-22.8-9.45T284.4,94h65.3V89.47q0-21.63-9.95-33.72T312.07,43.66M284.4,86a61.51,61.51,0,0,1,3.31-17.74,24.92,24.92,0,0,1,9.65-11.59,27.93,27.93,0,0,1,29.44,0,25,25,0,0,1,9.64,11.59Q339,73.89,339.75,86Z"/><path class="cls-1" d="M409.73,43.67a36,36,0,0,0-16,3.61,27.5,27.5,0,0,0-11.5,10V44.83H372.3v94h9.94V80.9q0-11.9,6.72-20.18t18.42-8.29A25.71,25.71,0,0,1,417,54a26,26,0,0,1,8.09,5.85l7.21-7.21q-9-9-22.61-9"/><path class="cls-1" d="M596.77,94.15q-7.12-5.27-20.37-6.63l-15.21-1.36c-6.62-.65-11.47-2.21-14.52-4.68s-4.58-6.17-4.58-11.11q0-8.78,6.14-13.45t17.84-4.68q15.39,0,26.31,8L599,53.6q-13.45-9.94-32.94-9.94-15.41,0-24.56,7.21t-9.16,19.5q0,22.21,28.26,24.56L576.2,96.3q9.36,1,13.65,4.68t4.29,11.11q0,19.11-28.26,19.1-19.89,0-30.8-11.5l-6.83,6.82q14,13.45,38,13.45,17.35,0,27.48-7.5t10.14-20.37q0-12.68-7.12-17.93"/><path class="cls-1" d="M476.4,43.24A48.62,48.62,0,1,0,525,91.86,48.67,48.67,0,0,0,476.4,43.24m0,87.83A39.21,39.21,0,1,1,515.6,91.86a39.25,39.25,0,0,1-39.21,39.21"/><path class="cls-1" d="M501.65,105a2.72,2.72,0,0,0-3.71,1.05,24.66,24.66,0,0,1-43.08,0,2.73,2.73,0,1,0-4.77,2.66,30.12,30.12,0,0,0,52.61,0,2.73,2.73,0,0,0-1.06-3.71"/></g></g></svg>